<?xml version="1.0" encoding="UTF-8"?>
<svg id="Layer_1" xmlns="http://www.w3.org/2000/svg" version="1.1" viewBox="0 0 500 500">
  <!-- Generator: Adobe Illustrator 29.6.1, SVG Export Plug-In . SVG Version: 2.1.1 Build 9)  -->
  <defs>
    <style>
      .st0 {
        fill: #525252;
      }

      .st1 {
        fill: #646464;
      }

      .st2 {
        fill: #313131;
      }

      .st3 {
        fill: #252525;
      }

      .st4 {
        fill: #2c2c2c;
      }

      .st5 {
        fill: #f6f6f6;
      }

      .st6 {
        fill: #3e3e3e;
      }

      .st7 {
        fill: #494949;
      }

      .st8 {
        fill: #3f3f3f;
      }

      .st9 {
        fill: #4d4d4d;
      }

      .st10 {
        fill: #3c3c3c;
      }

      .st11 {
        fill: #262626;
      }

      .st12 {
        fill: #303030;
      }

      .st13 {
        fill: #3b3b3b;
      }

      .st14 {
        fill: #363636;
      }

      .st15 {
        fill: #282828;
      }

      .st16 {
        fill: #333;
      }

      .st17 {
        fill: #595959;
      }

      .st18 {
        fill: #1b1b1b;
      }

      .st19 {
        fill: #191919;
      }

      .st20 {
        fill: #515151;
      }

      .st21 {
        fill: #484848;
      }

      .st22 {
        fill: #a9a9a9;
      }

      .st23 {
        fill: #292929;
      }

      .st24 {
        fill: #fefefe;
      }

      .st25 {
        fill: #323232;
      }

      .st26 {
        fill: #414141;
      }

      .st27 {
        fill: #e8e8e8;
      }
    </style>
  </defs>
  <path class="st24" d="M1,0h500v500H1V0Z"/>
  <path class="st4" d="M105,200c5.28,3.52,10.46,8.66,12,15q.12,2.81,0,5h-2q-.49,1.49-1,3c-2.3-2.3-2.33-3.13-2.81-6.25-1.01-4.9-2.57-7.3-6.19-10.75-4.22-2.51-8.21-2.39-13-2q-2.01,1.33-3,3,1.11.99,2.25,2c8.66,8.73,9.07,20.95,9.14,32.54.2,7.04,1.7,13.26,6.54,18.58.64.43,1.28.87,1.95,1.32.64.45,1.27.9,1.93,1.37,4.79,2.6,9.71,3.55,15.07,4.32,1.15.17,2.3.34,3.49.51.87.12,1.74.24,2.63.37v1q-20.92.87-28.79-5.44c-8.25-8.47-8.7-19.32-8.79-30.51-.13-8.18-1.31-16.12-7.41-22.06-8.74-6.63-18.34-8.47-29-10v-1q12.6-.35,17.31,1.06c5.64,1.43,10.22.36,15.75-1.12,4.9-1.27,9.06-1.56,13.94.06Z"/>
  <path class="st11" d="M167,190h2c.09,4.27.14,8.54.19,12.81.03,1.2.05,2.39.08,3.62.1,12.73-2.7,26.22-11.47,36.04-2.64,2.24-5.5,4.11-8.41,5.96-.57.37-1.15.73-1.74,1.11q-1.67,1.01-4.63,2.45-1.49-.49-3-1c.64-.47,1.28-.95,1.94-1.43,12.84-9.82,19.49-20.61,22.06-36.57.2-3.36.2-6.65,0-10-.38.42-.76.85-1.14,1.29-7.57,8.06-16.61,12.67-26.54,17.21-10.19,4.7-16.84,8.88-21.31,19.5-1.37-4.1-.16-5.83,1.67-9.6,5.31-9.59,12.9-13.03,22.45-17.51,7.16-3.39,12.98-7.63,18.81-12.95.56-.51,1.11-1.01,1.69-1.54,3.1-2.92,5.21-5.71,7.38-9.4Z"/>
  <path class="st3" d="M123,240c10.65,4.8,18.52,12.27,23,23,.41.78.82,1.56,1.24,2.37,5.73,12.34,4.11,29.33-.39,41.83-2.22,5.31-4.39,10.19-7.85,14.8q-.49-.99-1-2c.7-1.98,1.49-3.94,2.31-5.88,5.76-14.55,6.92-31.25,1.61-46.16-4.31-9.63-11.38-16.85-19.92-22.96.33-1.65.66-3.3,1-5Z"/>
  <path class="st17" d="M247,222q8.4-.2,11,0,2,2,2.12,5.62c-.04,1.11-.08,2.23-.12,3.38l-4,2c1.65,2.97,3.3,5.94,5,9h-4l-2.83-5.37q-1.16-1.95-4.17-2.63v8h-3v-20Z"/>
  <path class="st15" d="M326,221q1.89.27,4,1,1,1.63,1.7,3.71c.26.75.52,1.5.78,2.27.25.79.51,1.58.77,2.39.27.78.54,1.56.81,2.37,1.09,3.26,1.94,5.79,1.94,9.26h-3l-1-4h-10v4h-3c1.37-7.48,3.92-14.06,7-21Z"/>
  <path class="st15" d="M208,221q1.89.27,4,1,1,1.63,1.7,3.71c.26.75.52,1.5.78,2.27.25.79.51,1.58.77,2.39.27.78.54,1.56.81,2.37,1.09,3.26,1.94,5.79,1.94,9.26h-3l-1-4h-10v4h-3c1.37-7.48,3.92-14.06,7-21Z"/>
  <path class="st14" d="M224,221h3c.33,5.94.66,11.88,1,18h8q.49-8.91,1-18h3c.14,2.56.23,5.12.31,7.69.04.72.08,1.44.13,2.19.1,4.16-.1,5.68-2.74,9.11q-2.7,2.02-6.27,2.64-3.44-.62-5.64-2.64c-2.38-3.93-2.26-6.8-2.05-11.29.02-.74.04-1.48.05-2.24.05-1.82.12-3.63.2-5.44Z"/>
  <path class="st23" d="M286,221h3c.84,2.29,1.67,4.58,2.5,6.88q.36.98.72,1.97,1.78,4.93,1.78,7.15h2c.19-.74.39-1.47.59-2.23.26-.98.52-1.95.79-2.96q.38-1.44.77-2.92c.8-2.72,1.75-5.29,2.85-7.89h3c-2.04,7.12-4.4,14.07-7,21h-4c-1.17-3.12-2.34-6.25-3.5-9.38-.33-.89-.67-1.78-1.01-2.7q-.47-1.28-.96-2.58t-.89-2.38q-.64-1.97-.64-3.97Z"/>
  <path class="st22" d="M247.5,273.95c2.72.95,3.97,1.42,5.5,3.88-.22,3.65-.38,5.38-3,8q-2.94.38-6,0-1.94-1.69-3-4c.14-2.87.66-4.49,2.25-6.88q1.75-1.12,4.25-1Z"/>
  <path class="st14" d="M266,221h3c.67,1.29,1.34,2.58,2,3.88.37.72.74,1.44,1.12,2.18q.88,1.95.88,3.95h2c.1-.72.21-1.44.31-2.19.76-3.11,1.78-5.24,3.69-7.81h3c-1.1,3.03-2.32,5.51-4.06,8.25-2.41,4.06-2.73,8.1-2.94,12.75h-2c-.09-.62-.17-1.23-.26-1.87-.97-5.84-2.6-10.28-5.71-15.32q-1.02-1.81-1.02-3.81Z"/>
  <path class="st19" d="M247,222q8.4-.2,11,0,2,2,2.44,5.44-.22,1.76-.44,3.56-2.5,1.94-5,3c.14-.56.29-1.11.44-1.69.59-2.43,1.09-4.86,1.56-7.31-2.64-.66-5.28-1.32-8-2v9c1.32.33,2.64.66,4,1h-4v9h-2v-20Z"/>
  <path class="st14" d="M310,221h3v21h-3v-21Z"/>
  <path class="st5" d="M250,224h7q.62,2.38,1,5-2,2-5.12,2.12-1.42-.06-2.88-.12v-7Z"/>
  <path class="st13" d="M301,221h3c-1.76,6.11-3.7,12.07-6,18h-4v-2h2c.19-.74.39-1.47.59-2.23.26-.98.52-1.95.79-2.96.26-.96.51-1.93.77-2.92.8-2.72,1.75-5.29,2.85-7.89Z"/>
  <path class="st20" d="M213,275c3.74,1.25,4.19,2.63,6,6,.33-1.98.66-3.96,1-6h2v11c-4-1.33-4.84-3.5-7-7-.33,2.31-.66,4.62-1,7h-1v-11Z"/>
  <path class="st21" d="M302,274h2v12h-2v-5h-6v5h-1v-11h1v5h6v-6Z"/>
  <path class="st27" d="M327,225c2.95,2.95,3.09,5.96,4,10h-7c.99-3.3,1.98-6.6,3-10Z"/>
  <path class="st27" d="M209,225c2.95,2.95,3.09,5.96,4,10h-7c.99-3.3,1.98-6.6,3-10Z"/>
  <path class="st7" d="M290,275c.33.99.66,1.98,1,3-1.13-.19-2.27-.37-3.44-.56-1.18-.14-2.35-.29-3.56-.44q-1.3,1.07-1.06,3.56c.02.8.04,1.61.06,2.44,2.76.6,5.16,1,8,1q-2,2-5,2.25-3-.25-5-2.25-.55-6.03,1.12-9c2.81-1.5,4.88-.73,7.88,0Z"/>
  <path class="st1" d="M256,274h8v2h-3v10h-2v-10h-3v-2Z"/>
  <path class="st9" d="M270,275h6c-1.32.33-2.64.66-4,1v4c1.32.33,2.64.66,4,1h-4v4h5v1h-7v-11Z"/>
  <path class="st17" d="M333,233c2.13,3.19,2.5,5.27,3,9h-3c-.33-1.32-.66-2.64-1-4h-9v-1l6.05-.49q2.34-.39,3.95-3.51Z"/>
  <path class="st17" d="M215,233c2.13,3.19,2.5,5.27,3,9h-3c-.33-1.32-.66-2.64-1-4h-9v-1l6.05-.49q2.34-.39,3.95-3.51Z"/>
  <path class="st23" d="M256,222l4,2q.31,3.31,0,7-2.5,1.94-5,3c.14-.56.29-1.11.44-1.69.19-.76.37-1.53.56-2.31.23-.87.45-1.73.69-2.62.1-.78.21-1.57.31-2.38-.66-.66-1.32-1.32-2-2l1-1Z"/>
  <path class="st0" d="M229,275h7v1h-5v4c1.32.33,2.64.66,4,1h-4v5h-2v-11Z"/>
  <path class="st26" d="M279,221h3c-1.45,3.79-3.15,7.39-5,11-.66-.33-1.32-.66-2-1,.56-3.94,1.62-6.79,4-10Z"/>
  <path class="st10" d="M144,308q.68,1.67,1,4-1.21,2.58-2.94,5.25c-.57.89-1.13,1.78-1.71,2.7-.44.68-.89,1.35-1.35,2.05q-1-2-.29-4.57c.36-.99.73-1.98,1.11-3,.36-.99.71-1.98,1.08-3q1.11-2.43,3.11-3.43Z"/>
  <path class="st6" d="M326,221l4,1c.33,1.65.66,3.3,1,5h-7c.66-1.98,1.32-3.96,2-6Z"/>
  <path class="st6" d="M208,221l4,1c.33,1.65.66,3.3,1,5h-7c.66-1.98,1.32-3.96,2-6Z"/>
  <path class="st25" d="M329,227c.99.33,1.98.66,3,1,.38,2.33.71,4.66,1,7q-1,1-2.85,1.1c-2.05-.03-4.1-.07-6.15-.1v-1h7c-.33-.76-.66-1.53-1-2.31q-1-2.69-1-5.69Z"/>
  <path class="st25" d="M211,227c.99.33,1.98.66,3,1,.38,2.33.71,4.66,1,7q-1,1-2.85,1.1c-2.05-.03-4.1-.07-6.15-.1v-1h7c-.33-.76-.66-1.53-1-2.31q-1-2.69-1-5.69Z"/>
  <path class="st16" d="M213,275q3,1,4.75,3.44.62,1.27,1.25,2.56c-.33.66-.66,1.32-1,2-.99-1.32-1.98-2.64-3-4-.33,2.31-.66,4.62-1,7h-1v-11Z"/>
  <path class="st18" d="M275,231c1.26,2.52.92,3.85.56,6.62q-.15,1.23-.31,2.48c-.08.63-.17,1.25-.25,1.9h-2c-.33-3.3-.66-6.6-1-10,.99-.33,1.98-.66,3-1Z"/>
  <path class="st12" d="M325,226c.88,2.48,1.12,3.66.25,6.19q-1.25,1.81-4.25,2.81,1.75-6.75,4-9Z"/>
  <path class="st12" d="M207,226c.88,2.48,1.12,3.66.25,6.19q-1.25,1.81-4.25,2.81,1.75-6.75,4-9Z"/>
  <path class="st8" d="M286,221h3c.66,2.31,1.32,4.62,2,7-.99.33-1.98.66-3,1l-2-8Z"/>
  <path class="st2" d="M225,236c.99.33,1.98.66,3,1v2h2v3q-1.94-.75-4-2-.75-2.12-1-4Z"/>
  <path class="st14" d="M205.59,269.41h3v17.48h-3v-17.48Z"/>
  <path class="st14" d="M178.7,190h3v134.54h-3v-134.54Z"/>
  <path class="st14" d="M179.74,257.92l-.02-3c58.46-.35,116.93-.71,177.16-1.07l.02,3c-58.46.35-116.93.71-177.16,1.07Z"/>
</svg>