<?xml version="1.0" encoding="UTF-8"?>
<svg id="Layer_1" xmlns="http://www.w3.org/2000/svg" version="1.1" xmlns:xlink="http://www.w3.org/1999/xlink" viewBox="0 0 250 150">
  <!-- Generator: Adobe Illustrator 29.6.1, SVG Export Plug-In . SVG Version: 2.1.1 Build 9)  -->
  <defs>
    <style>
      .st0 {
        clip-path: url(#clippath-4);
      }

      .st1, .st2, .st3 {
        fill: none;
      }

      .st2 {
        stroke-miterlimit: 4;
        stroke-width: 4px;
      }

      .st2, .st3 {
        stroke: #191919;
        stroke-linecap: round;
      }

      .st4 {
        clip-path: url(#clippath-1);
      }

      .st5 {
        clip-path: url(#clippath-5);
      }

      .st6 {
        clip-path: url(#clippath-3);
      }

      .st7 {
        fill: #191919;
      }

      .st8 {
        clip-path: url(#clippath-2);
      }

      .st3 {
        stroke-width: 4px;
      }

      .st9 {
        clip-path: url(#clippath);
      }
    </style>
    <clipPath id="clippath">
      <rect class="st1" x="6.17" y="16.82" width="92.12" height="111.87"/>
    </clipPath>
    <clipPath id="clippath-1">
      <rect class="st1" x="6.17" y="16.45" width="92.12" height="112.75"/>
    </clipPath>
    <clipPath id="clippath-2">
      <rect class="st1" x="6.27" y="24.67" width="64.01" height="59.31"/>
    </clipPath>
    <clipPath id="clippath-3">
      <rect class="st1" x="54.66" y="16.82" width="43.1" height="111.87"/>
    </clipPath>
    <clipPath id="clippath-4">
      <rect class="st1" x="116.71" y="35.38" width="119.17" height="37.37"/>
    </clipPath>
    <clipPath id="clippath-5">
      <rect class="st1" x="116.05" y="78.67" width="83.33" height="21.33"/>
    </clipPath>
  </defs>
  <g class="st9">
    <g class="st4">
      <g>
        <path class="st7" d="M43.13,31.99c0,.75.56,1.35,1.24,1.35s1.24-.6,1.24-1.35-.55-1.35-1.24-1.35-1.24.61-1.24,1.35"/>
        <g class="st8">
          <path class="st7" d="M30.09,28.13c2.86-.23,5.49-1.43,8.75-2.47,5.83-1.86,12.14.09,16.15,7.13,1.5,2.62,1.97,5.58,2.33,8.57-1.14,1.28-2.13,2.61-2.97,3.94-.24-3.51-.39-6.9-2.09-10.34-3.94-8-11.91-7.79-16.52-4.92-.71.44-.37.99-.04,1.33.13.1.25.21.38.32,2.56,2.23,5.73,6.48,7.36,15.23.97,5.23.64,11.7,1.4,19.09,1.46,14.27,15.17,15.12,24.94,16.89-11.02,1.95-22.55-1.13-26.17-9.54-4-9.29-1.69-12.63-3.1-24.14-1.1-9.04-2.95-13.38-9.41-17.51-9.85-6.3-24.79-5.93-24.79-5.93,0,0,12.39-2.64,23.79,2.33"/>
        </g>
        <g class="st6">
          <path class="st7" d="M82.65,37.39c-4.75,3.19-8.04,4.42-14.67,7.72-10.73,5.33-12.92,16.4-12.92,16.4,0,0,.29-11.27,9.11-18.29,6.09-4.86,9.73-4.52,17.32-10,9.96-7.2,15.2-16.4,15.2-16.4,0,0,4.84,28.19-7.84,43.08-4.98,5.84-11.65,8.81-14.5,9.88,6.93,8.63,9.39,20.93,8.46,32.16-.8,9.76-4.24,19.29-9.9,26.91,3.58-9.32,6.62-18.28,6.56-28.38-.08-12.85-2.34-22.64-11.18-31.07-1.73-1.65-4.98-4.59-7.39-7.18.24-.83.78-2.37,1.81-4.13.73,1.02,1.53,1.98,2.41,2.84,2.46,2.39,5.21,4.43,7.58,6.93.49.52.96,1.05,1.41,1.6,2.56-1.84,8.91-6.84,13.48-14.06,8.47-13.38,6.34-28.66,6.34-28.66,0,0-4.18,5.9-11.26,10.66"/>
        </g>
      </g>
    </g>
  </g>
  <g class="st0">
    <g>
      <path class="st7" d="M129.2,58.07h-7.49l-1.38,4.2h-2.37l6.21-18.76h2.59l6.19,18.76h-2.37l-1.39-4.2ZM128.56,56.07l-3.11-9.52-3.11,9.52h6.22Z"/>
      <path class="st7" d="M140.02,43.4v11.94c0,1.68.37,2.92,1.12,3.74.75.81,1.79,1.22,3.13,1.22s2.34-.41,3.09-1.22c.75-.81,1.12-2.06,1.12-3.74v-11.94h2.25v11.91c0,1.57-.29,2.89-.86,3.97-.58,1.07-1.35,1.87-2.33,2.4-.98.52-2.08.79-3.29.79s-2.32-.26-3.29-.79c-.98-.52-1.75-1.32-2.32-2.4-.56-1.07-.84-2.4-.84-3.97v-11.91h2.24Z"/>
      <path class="st7" d="M165.67,62.27l-4.09-7.71h-2.71v7.71h-2.25v-18.87h5.55c1.3,0,2.39.25,3.28.73.9.49,1.57,1.15,2.01,1.98.44.83.67,1.77.67,2.84,0,1.3-.34,2.44-1.03,3.43-.68.99-1.7,1.65-3.06,1.97l4.31,7.9h-2.69ZM158.88,52.58h3.3c1.22,0,2.13-.33,2.73-.99.61-.66.92-1.54.92-2.64s-.3-1.99-.91-2.6c-.6-.62-1.51-.93-2.74-.93h-3.3v7.15Z"/>
      <path class="st7" d="M185.82,43.4l-5.6,11.75v7.12h-2.25v-7.12l-5.62-11.75h2.49l4.24,9.55,4.24-9.55h2.49Z"/>
      <path class="st7" d="M204.54,43.4l-6.48,18.87h-2.59l-6.48-18.87h2.39l5.4,16.27,5.39-16.27h2.37Z"/>
      <path class="st7" d="M211.42,43.4v18.87h-2.25v-18.87h2.25Z"/>
      <path class="st7" d="M227.56,58.07h-7.49l-1.38,4.2h-2.37l6.21-18.76h2.59l6.19,18.76h-2.37l-1.39-4.2ZM226.93,56.07l-3.11-9.52-3.11,9.52h6.22Z"/>
    </g>
  </g>
  <g class="st5">
    <g>
      <path class="st7" d="M118.92,83.55v9.82h-1.28v-9.82h1.28Z"/>
      <path class="st7" d="M130.59,93.38h-1.28l-5.17-7.82v7.82h-1.28v-9.83h1.28l5.17,7.8v-7.8h1.28v9.83Z"/>
      <path class="st7" d="M140.09,83.55v1.04h-4.27v3.31h3.47v1.04h-3.47v4.43h-1.28v-9.82h5.55Z"/>
      <path class="st7" d="M147.86,93.47c-.92,0-1.75-.21-2.5-.64-.75-.43-1.34-1.03-1.78-1.79-.44-.76-.66-1.63-.66-2.58s.22-1.82.66-2.58c.44-.77,1.03-1.37,1.78-1.79.75-.43,1.58-.65,2.5-.65s1.75.22,2.5.65c.76.42,1.35,1.02,1.78,1.78.43.76.65,1.62.65,2.59s-.22,1.83-.65,2.59c-.43.76-1.03,1.35-1.78,1.78-.75.42-1.58.64-2.5.64ZM147.86,92.37c.68,0,1.29-.16,1.84-.48.55-.32.99-.77,1.3-1.36.31-.6.47-1.28.47-2.06s-.16-1.48-.47-2.06c-.31-.59-.74-1.04-1.29-1.36-.54-.32-1.16-.48-1.85-.48s-1.32.16-1.86.48c-.54.32-.97.78-1.29,1.36-.31.58-.47,1.27-.47,2.06s.16,1.47.47,2.06c.32.59.75,1.05,1.3,1.36.55.32,1.17.48,1.85.48Z"/>
      <path class="st7" d="M162.29,83.55v1.04h-2.68v8.78h-1.29v-8.78h-2.69v-1.04h6.66Z"/>
      <path class="st7" d="M166.91,84.6v3.28h3.58v1.06h-3.58v3.39h4.01v1.05h-5.29v-9.83h5.29v1.05h-4.01Z"/>
      <path class="st7" d="M174.14,88.46c0-.96.21-1.82.65-2.58.44-.77,1.03-1.37,1.77-1.8.75-.43,1.58-.65,2.49-.65,1.07,0,2,.26,2.8.78.8.52,1.38,1.24,1.75,2.19h-1.53c-.28-.59-.67-1.04-1.19-1.36-.51-.32-1.12-.48-1.83-.48s-1.31.16-1.85.48c-.54.32-.97.78-1.28,1.36-.31.58-.46,1.27-.46,2.06s.15,1.46.46,2.05c.31.58.74,1.04,1.28,1.35.55.32,1.17.48,1.85.48s1.33-.16,1.83-.47c.51-.31.91-.77,1.19-1.36h1.53c-.37.95-.95,1.67-1.75,2.19-.8.51-1.73.76-2.8.76-.91,0-1.74-.21-2.49-.64-.74-.43-1.33-1.02-1.77-1.78-.43-.76-.65-1.63-.65-2.58Z"/>
      <path class="st7" d="M194.84,83.55v9.82h-1.28v-4.46h-5.01v4.46h-1.28v-9.82h1.28v4.31h5.01v-4.31h1.28Z"/>
    </g>
  </g>
  <path class="st3" d="M105.92,16.23v117.55"/>
  <path class="st2" d="M236.14,73.27l-119.7-1.03"/>
</svg>