<?xml version="1.0" encoding="UTF-8"?>
<svg id="Layer_1" xmlns="http://www.w3.org/2000/svg" version="1.1" viewBox="0 0 250 150">
  <!-- Generator: Adobe Illustrator 29.6.1, SVG Export Plug-In . SVG Version: 2.1.1 Build 9)  -->
  <defs>
    <style>
      .st0 {
        fill: #525252;
      }

      .st1 {
        fill: #646464;
      }

      .st2 {
        fill: #313131;
      }

      .st3 {
        fill: #252525;
      }

      .st4 {
        fill: #2c2c2c;
      }

      .st5 {
        fill: #f6f6f6;
      }

      .st6 {
        fill: #3e3e3e;
      }

      .st7 {
        fill: #494949;
      }

      .st8 {
        fill: #3f3f3f;
      }

      .st9 {
        fill: #4d4d4d;
      }

      .st10 {
        fill: #3c3c3c;
      }

      .st11 {
        fill: #262626;
      }

      .st12 {
        fill: #303030;
      }

      .st13 {
        fill: #3b3b3b;
      }

      .st14 {
        fill: #363636;
      }

      .st15 {
        fill: #282828;
      }

      .st16 {
        fill: #333;
      }

      .st17 {
        fill: #595959;
      }

      .st18 {
        fill: #1b1b1b;
      }

      .st19 {
        fill: #191919;
      }

      .st20 {
        fill: #515151;
      }

      .st21 {
        fill: #484848;
      }

      .st22 {
        fill: #a9a9a9;
      }

      .st23 {
        fill: #292929;
      }

      .st24 {
        fill: #323232;
      }

      .st25 {
        fill: #414141;
      }

      .st26 {
        fill: #e8e8e8;
      }
    </style>
  </defs>
  <path class="st4" d="M41.97,17.27c4.25,3.26,8.42,8.01,9.67,13.88q.1,2.6,0,4.63h-1.61q-.4,1.37-.81,2.78c-1.86-2.13-1.88-2.89-2.27-5.78-.81-4.53-2.07-6.75-4.98-9.95-3.4-2.32-6.62-2.21-10.47-1.85q-1.62,1.23-2.42,2.78.9.92,1.81,1.85c6.98,8.08,7.31,19.38,7.36,30.11.16,6.51,1.37,12.27,5.27,17.19.52.4,1.03.8,1.57,1.22.51.42,1.03.84,1.55,1.27,3.86,2.41,7.83,3.29,12.14,3.99.93.16,1.86.31,2.81.47.7.11,1.4.22,2.12.34v.93q-16.85.81-23.19-5.03c-6.64-7.84-7.01-17.88-7.08-28.22-.1-7.57-1.06-14.91-5.97-20.41-7.04-6.14-14.77-7.83-23.36-9.25v-.93q10.15-.32,13.95.98c4.54,1.33,8.23.33,12.69-1.04,3.95-1.17,7.3-1.45,11.23.06Z"/>
  <path class="st11" d="M91.91,8.02h1.61c.07,3.95.11,7.9.15,11.85.02,1.11.04,2.21.06,3.35.08,11.78-2.17,24.26-9.24,33.35-2.13,2.07-4.43,3.8-6.78,5.51-.46.34-.93.68-1.4,1.03q-1.35.93-3.73,2.27-1.2-.46-2.42-.93c.52-.44,1.03-.88,1.56-1.33,10.34-9.08,15.7-19.07,17.77-33.83.16-3.1.16-6.15,0-9.25-.3.39-.61.78-.92,1.19-6.1,7.46-13.38,11.73-21.38,15.93-8.21,4.35-13.57,8.22-17.17,18.04-1.1-3.79-.13-5.39,1.35-8.88,4.28-8.87,10.39-12.05,18.09-16.2,5.77-3.14,10.46-7.06,15.15-11.98.45-.47.9-.94,1.36-1.42,2.49-2.7,4.2-5.28,5.94-8.7Z"/>
  <path class="st3" d="M56.47,54.28c8.58,4.45,14.92,11.35,18.53,21.28.33.72.66,1.45,1,2.19,4.62,11.41,3.31,27.14-.31,38.7-1.79,4.91-3.54,9.43-6.32,13.7q-.4-.92-.81-1.85c.57-1.84,1.2-3.64,1.86-5.44,4.64-13.46,5.58-28.91,1.29-42.71-3.47-8.91-9.17-15.59-16.04-21.25.27-1.53.53-3.05.81-4.63Z"/>
  <path class="st17" d="M156.35,37.63q6.76-.18,8.86,0,1.61,1.85,1.71,5.2c-.03,1.03-.07,2.06-.1,3.12l-3.22,1.85c1.33,2.75,2.66,5.5,4.03,8.33h-3.22q-1.14-2.48-2.28-4.97-.93-1.81-3.36-2.43v7.4h-2.42v-18.5Z"/>
  <path class="st15" d="M219.98,36.7q1.53.25,3.22.93.81,1.5,1.37,3.43c.21.69.42,1.39.63,2.1.2.73.41,1.46.62,2.21.22.72.43,1.45.65,2.19.88,3.01,1.56,5.36,1.56,8.57h-2.42l-.81-3.7h-8.05v3.7h-2.42c1.1-6.92,3.16-13,5.64-19.43Z"/>
  <path class="st15" d="M124.93,36.7q1.53.25,3.22.93.81,1.5,1.37,3.43c.21.69.42,1.39.63,2.1.2.73.41,1.46.62,2.21.22.72.43,1.45.65,2.19.88,3.01,1.56,5.36,1.56,8.57h-2.42l-.81-3.7h-8.05v3.7h-2.42c1.1-6.92,3.16-13,5.64-19.43Z"/>
  <path class="st14" d="M137.82,36.7h2.42c.27,5.5.53,10.99.81,16.65h6.44q.4-8.24.81-16.65h2.42c.11,2.37.19,4.74.25,7.11.03.67.07,1.33.1,2.02.08,3.85-.08,5.26-2.2,8.43q-2.18,1.87-5.05,2.45-2.77-.58-4.54-2.45c-1.91-3.64-1.82-6.29-1.65-10.45.01-.69.03-1.37.04-2.08.04-1.68.1-3.36.16-5.04Z"/>
  <path class="st23" d="M187.76,36.7h2.42c.67,2.12,1.35,4.24,2.01,6.36q.29.9.58,1.83,1.43,4.56,1.43,6.62h1.61c.16-.68.31-1.36.47-2.06.21-.9.42-1.81.64-2.74q.31-1.34.62-2.7c.64-2.51,1.41-4.89,2.3-7.3h2.42c-1.64,6.59-3.55,13.02-5.64,19.43h-3.22c-.94-2.89-1.88-5.78-2.82-8.67-.27-.82-.54-1.65-.81-2.49q-.38-1.18-.77-2.39t-.72-2.2q-.52-1.82-.52-3.67Z"/>
  <path class="st22" d="M156.75,85.69c2.19.88,3.2,1.31,4.43,3.59-.18,3.37-.31,4.98-2.42,7.4q-2.37.35-4.83,0-1.56-1.56-2.42-3.7c.11-2.65.53-4.16,1.81-6.36q1.41-1.04,3.42-.93Z"/>
  <path class="st14" d="M171.65,36.7h2.42c.54,1.19,1.08,2.39,1.61,3.59.3.67.6,1.33.91,2.02q.7,1.8.7,3.65h1.61c.08-.67.17-1.34.25-2.02.61-2.88,1.43-4.85,2.97-7.23h2.42c-.89,2.8-1.87,5.1-3.27,7.63-1.94,3.76-2.2,7.49-2.37,11.8h-1.61c-.07-.57-.14-1.14-.21-1.73-.78-5.4-2.1-9.51-4.6-14.17q-.82-1.68-.82-3.53Z"/>
  <path class="st19" d="M156.35,37.63q6.76-.18,8.86,0,1.61,1.85,1.96,5.03-.17,1.63-.35,3.3-2.01,1.79-4.03,2.78c.12-.52.23-1.03.35-1.56.48-2.24.87-4.5,1.26-6.77-2.13-.61-4.25-1.22-6.44-1.85v8.33c1.06.31,2.13.61,3.22.93h-3.22v8.33h-1.61v-18.5Z"/>
  <path class="st14" d="M207.09,36.7h2.42v19.43h-2.42v-19.43Z"/>
  <path class="st5" d="M158.76,39.48h5.64q.5,2.2.81,4.63-1.61,1.85-4.13,1.97-1.15-.06-2.32-.12v-6.48Z"/>
  <path class="st13" d="M199.84,36.7h2.42c-1.42,5.65-2.98,11.17-4.83,16.65h-3.22v-1.85h1.61c.16-.68.31-1.36.47-2.06.21-.9.42-1.81.64-2.74.21-.89.41-1.78.62-2.7.64-2.51,1.41-4.89,2.3-7.3Z"/>
  <path class="st20" d="M128.96,86.67c3.01,1.15,3.37,2.44,4.83,5.55.27-1.83.53-3.66.81-5.55h1.61v10.18c-3.22-1.23-3.9-3.23-5.64-6.48-.27,2.14-.53,4.27-.81,6.48h-.81v-10.18Z"/>
  <path class="st21" d="M200.65,85.74h1.61v11.1h-1.61v-4.63h-4.83v4.63h-.81v-10.18h.81v4.63h4.83v-5.55Z"/>
  <path class="st26" d="M220.79,40.41c2.38,2.73,2.49,5.51,3.22,9.25h-5.64c.8-3.05,1.59-6.11,2.42-9.25Z"/>
  <path class="st26" d="M125.74,40.41c2.38,2.73,2.49,5.51,3.22,9.25h-5.64c.8-3.05,1.59-6.11,2.42-9.25Z"/>
  <path class="st7" d="M190.98,86.67c.27.92.53,1.83.81,2.78-.91-.17-1.83-.34-2.77-.52-.95-.13-1.89-.27-2.87-.4q-1.04.99-.86,3.3c.02.74.03,1.49.05,2.26,2.23.55,4.16.93,6.44.93q-1.61,1.85-4.03,2.08-2.42-.23-4.03-2.08-.44-5.58.91-8.33c2.26-1.38,3.93-.68,6.34,0Z"/>
  <path class="st1" d="M163.6,85.74h6.44v1.85h-2.42v9.25h-1.61v-9.25h-2.42v-1.85Z"/>
  <path class="st9" d="M174.87,86.67h4.83c-1.06.31-2.13.61-3.22.93v3.7c1.06.31,2.13.61,3.22.93h-3.22v3.7h4.03v.93h-5.64v-10.18Z"/>
  <path class="st17" d="M225.62,47.81c1.71,2.95,2.02,4.87,2.42,8.33h-2.42c-.27-1.22-.53-2.44-.81-3.7h-7.25v-.93l4.88-.45q1.89-.36,3.18-3.25Z"/>
  <path class="st17" d="M130.57,47.81c1.71,2.95,2.02,4.87,2.42,8.33h-2.42c-.27-1.22-.53-2.44-.81-3.7h-7.25v-.93l4.88-.45q1.89-.36,3.18-3.25Z"/>
  <path class="st23" d="M163.6,37.63l3.22,1.85q.25,3.06,0,6.48-2.01,1.79-4.03,2.78c.12-.52.23-1.03.35-1.56.15-.71.3-1.41.45-2.14.18-.8.37-1.6.55-2.43.08-.73.17-1.45.25-2.2-.53-.61-1.06-1.22-1.61-1.85l.81-.93Z"/>
  <path class="st0" d="M141.85,86.67h5.64v.93h-4.03v3.7c1.06.31,2.13.61,3.22.93h-3.22v4.63h-1.61v-10.18Z"/>
  <path class="st25" d="M182.12,36.7h2.42c-1.17,3.51-2.54,6.84-4.03,10.18-.53-.31-1.06-.61-1.61-.93.45-3.64,1.3-6.28,3.22-9.25Z"/>
  <path class="st10" d="M73.38,117.2q.55,1.55.81,3.7-.98,2.39-2.37,4.86c-.46.83-.91,1.65-1.38,2.5-.36.62-.72,1.25-1.09,1.89q-.81-1.85-.24-4.22c.29-.91.59-1.83.89-2.77.29-.92.58-1.83.87-2.78q.89-2.25,2.5-3.18Z"/>
  <path class="st6" d="M219.98,36.7l3.22.93c.27,1.53.53,3.05.81,4.63h-5.64c.53-1.83,1.06-3.66,1.61-5.55Z"/>
  <path class="st6" d="M124.93,36.7l3.22.93c.27,1.53.53,3.05.81,4.63h-5.64c.53-1.83,1.06-3.66,1.61-5.55Z"/>
  <path class="st24" d="M222.4,42.26c.8.31,1.59.61,2.42.93.31,2.15.57,4.31.81,6.48q-.81.93-2.29,1.02c-1.65-.03-3.3-.06-4.96-.09v-.93h5.64c-.27-.71-.53-1.41-.81-2.14q-.81-2.49-.81-5.26Z"/>
  <path class="st24" d="M127.35,42.26c.8.31,1.59.61,2.42.93.31,2.15.57,4.31.81,6.48q-.81.93-2.29,1.02c-1.65-.03-3.3-.06-4.96-.09v-.93h5.64c-.27-.71-.53-1.41-.81-2.14q-.81-2.49-.81-5.26Z"/>
  <path class="st16" d="M128.96,86.67q2.42.93,3.83,3.18.5,1.17,1.01,2.37c-.27.61-.53,1.22-.81,1.85-.8-1.22-1.59-2.44-2.42-3.7-.27,2.14-.53,4.27-.81,6.48h-.81v-10.18Z"/>
  <path class="st18" d="M178.9,45.96c1.02,2.33.74,3.57.45,6.13q-.12,1.13-.25,2.29c-.07.58-.13,1.16-.2,1.76h-1.61c-.27-3.05-.53-6.11-.81-9.25.8-.31,1.59-.61,2.42-.93Z"/>
  <path class="st12" d="M219.18,41.33c.71,2.29.9,3.39.2,5.72q-1.01,1.68-3.42,2.6,1.41-6.25,3.22-8.33Z"/>
  <path class="st12" d="M124.13,41.33c.71,2.29.9,3.39.2,5.72q-1.01,1.68-3.42,2.6,1.41-6.25,3.22-8.33Z"/>
  <path class="st8" d="M187.76,36.7h2.42c.53,2.14,1.06,4.27,1.61,6.48-.8.31-1.59.61-2.42.93l-1.61-7.4Z"/>
  <path class="st2" d="M138.63,50.58c.8.31,1.59.61,2.42.93v1.85h1.61v2.78q-1.56-.69-3.22-1.85-.6-1.97-.81-3.7Z"/>
  <path class="st14" d="M122.99,81.49h2.42v16.17h-2.42v-16.17Z"/>
  <path class="st14" d="M101.33,8.02h2.42v124.48h-2.42V8.02Z"/>
  <path class="st14" d="M102.17,70.87v-2.78c47.08-.33,94.17-.65,142.69-.99v2.78c-47.08.33-94.17.65-142.69.99Z"/>
</svg>